<svg width="102" height="110" viewBox="0 0 29 32" fill="none" xmlns="http://www.w3.org/2000/svg">
<path d="M1 14L14.5204 21.5714L27.5 14M1 18.3265L14.5204 25.898L27.5 18.3265M1 22.6531L14.5204 30.2245L27.5 22.6531" stroke="#FF9B6A" stroke-width="2" stroke-linecap="round" stroke-linejoin="round"/>
<path d="M14.8859 1.35688C14.6484 1.21437 14.3516 1.21437 14.1141 1.35688L1.61413 8.85688C1.38822 8.99242 1.25 9.23655 1.25 9.5C1.25 9.76345 1.38822 10.0076 1.61413 10.1431L14.1141 17.6431C14.3516 17.7856 14.6484 17.7856 14.8859 17.6431L27.3859 10.1431C27.6118 10.0076 27.75 9.76345 27.75 9.5C27.75 9.23655 27.6118 8.99242 27.3859 8.85688L14.8859 1.35688Z" fill="#FF9B6A" stroke="#FF9B6A" stroke-width="1.5" stroke-linejoin="round"/>
</svg>
